<?xml version="1.0" ?><!DOCTYPE svg  PUBLIC '-//W3C//DTD SVG 1.1//EN'  'http://www.w3.org/Graphics/SVG/1.1/DTD/svg11.dtd'><svg enable-background="new 0 0 211.664 258.772" id="Layer_1" version="1.1" viewBox="0 0 211.664 258.772" xml:space="preserve" xmlns="http://www.w3.org/2000/svg" xmlns:xlink="http://www.w3.org/1999/xlink"><path d="M115.332,210.636h-20c-1.381,0-2.5-1.119-2.5-2.5v-100.5h-33.5c-1.381,0-2.5-1.119-2.5-2.5v-20c0-1.381,1.119-2.5,2.5-2.5  h33.5v-33.5c0-1.381,1.119-2.5,2.5-2.5h20c1.381,0,2.5,1.119,2.5,2.5v33.5h33.5c1.381,0,2.5,1.119,2.5,2.5v20  c0,1.381-1.119,2.5-2.5,2.5h-33.5v100.5C117.832,209.517,116.713,210.636,115.332,210.636z M97.832,205.636h15v-100.5  c0-1.381,1.119-2.5,2.5-2.5h33.5v-15h-33.5c-1.381,0-2.5-1.119-2.5-2.5v-33.5h-15v33.5c0,1.381-1.119,2.5-2.5,2.5h-33.5v15h33.5  c1.381,0,2.5,1.119,2.5,2.5V205.636z"/></svg>